<svg id="Layer_1" data-name="Layer 1" xmlns="http://www.w3.org/2000/svg" viewBox="0 0 188.35 173.5"><defs><style>.cls-1{fill:#ffff;}</style></defs><path class="cls-1" d="M97,137.24,82.51,173.5h9.92l1.91-5.24h12.55l1.77,5.24h10l-14.39-36.26Zm-.14,23.68,3.72-12.39h.15l3.72,12.39Z"></path><rect class="cls-1" x="122.02" y="137.16" width="8.11" height="36.34"></rect><path class="cls-1" d="M182.52,148.22a87.81,87.81,0,0,0-3.6-9.58l-13.31-31.56c-.07-2.83,0-5.65-.19-8.55-.22-3.42,1-10.5-1-13.36-1.73-2.52-12.54-18.29-16.85-30.64,8.94-3.85,12-17.59,8.8-20.94-4.07,4.2-11.26,4.52-18.85,7a44.86,44.86,0,0,0-10.31,5.14q-.3-.69-.63-1.38c-2.23-4.7-5.16-7.63-10.33-9-11.47-2.94-22.32-1-33-7.92C73,20.81,71.63,11.57,71.22,0,63.1,4.06,54.28,13.09,50.54,22.28l12.94,6.9L69,27.32s7.14,2.6,8.11,3.58.32,6.5,0,9.1-2.27,3.25-2.6,5.2,32.11,40.65,32.11,40.65h2.92a10.65,10.65,0,0,0,.32-8.13c-1.33-3.75-1.36-10,.22-13.45.52-1.17,8.07-8.49,8-8.62,4.34,7.08,7.8,5.33,13.84,10,2.92,2.28.33,13.33.65,18.86S127,89.43,127,89.43a11.1,11.1,0,0,0,2.27,6.5c4.62,5.3,6.91,10.28,6.51,17.24s-5.14,17.39-.87,23.86c3.33,5.05,10.65,5.39,15.42,9.11,7.18,5.6,4,14.4,8.23,20.84,2,3.14,6.4,5.59,10,6.2,4.76.81,6.3-1.68,10.15-3.25,3.58-1.44,6.7-3.54,8.62-6.75C190.52,157.89,185.47,152.69,182.52,148.22Z"></path><path class="cls-1" d="M51.44,106.88c17.38.84,24.91-2.48,27.69-4.31,10.2-4.9,1.64-15.44-2.23-23.2L56.15,37.42l-9.39-6.53c-4.17,12.44,9.49,20.69,8.39,20.82-4.55.51-21.25,1.66-25.86,2.49C1.84,59.14-2.32,83.93,1,89c4.54-10.48,21-19.31,32.12-15.77,0,0-14.28,16.84-14.31,35.76a75.67,75.67,0,0,0,1.89,21.3C20.94,122.89,27.78,105.74,51.44,106.88Z"></path><path class="cls-1" d="M57.85,164.38a20.55,20.55,0,0,1-2.49.17,20.16,20.16,0,1,1,16.13-8.2l4.69,8.14a28.72,28.72,0,1,0-13.65,8Z"></path><path class="cls-1" d="M68.77,159.36a19.92,19.92,0,0,1-7,4.12l5.71,9.93h9.36Z"></path></svg>