<svg width="100" height="100" viewBox="0 0 100 100" fill="none" xmlns="http://www.w3.org/2000/svg">
  <path d="M100 77C83.14 69.454 39.535 58.889 0 77h100Z" fill="url(#a)"/>
  <g clip-path="url(#b)">
    <circle cx="49.5" cy="49.5" r="23.5" fill="#fff"/>
    <path d="M49.407 19.788c-16.21 0-29.513 13.303-29.513 29.513s13.303 29.513 29.513 29.513S78.92 65.511 78.92 49.301 65.618 19.788 49.407 19.788Zm0 48.535a3.463 3.463 0 0 1-3.458-3.458 3.463 3.463 0 0 1 3.458-3.459 3.463 3.463 0 0 1 3.459 3.459 3.463 3.463 0 0 1-3.459 3.458Zm6.129-19.299c-1.723 1.267-2.67 2.884-2.67 4.555v.91a3.459 3.459 0 1 1-6.917 0v-.91c0-3.876 2.003-7.57 5.495-10.131a3.432 3.432 0 0 0 1.422-2.793 3.463 3.463 0 0 0-3.459-3.459c-.687 0-1.328.202-1.867.549-1.606 1.034-3.14 2.91-5.05 2.91-1.91 0-3.515-1.591-2.888-3.396 1.41-4.059 5.272-6.98 9.805-6.98 5.722 0 10.376 4.654 10.376 10.376 0 3.29-1.587 6.419-4.247 8.37Z" fill="url(#c)"/>
    <path d="M51.223 43.147c-3.575 2.623-5.647 6.422-5.647 10.432v.91a3.832 3.832 0 1 0 7.663 0v-.91c0-1.52.861-3.036 2.518-4.254a10.792 10.792 0 0 0 4.4-8.67c0-5.928-4.822-10.75-10.75-10.75-4.697 0-8.698 3.028-10.157 7.232-.363 1.044-.075 2.033.568 2.746.636.706 1.617 1.145 2.672 1.145 1.078 0 2.02-.53 2.859-1.139.35-.254.695-.533 1.028-.802l.2-.16c.398-.321.782-.621 1.165-.868a3.06 3.06 0 0 1 1.665-.49 3.09 3.09 0 0 1 3.086 3.086c0 .993-.461 1.9-1.27 2.492ZM20.267 49.3c0-16.004 13.136-29.14 29.14-29.14s29.14 13.136 29.14 29.14-13.136 29.14-29.14 29.14-29.14-13.136-29.14-29.14Zm25.309 15.564a3.836 3.836 0 0 0 3.831 3.831 3.836 3.836 0 0 0 3.832-3.831 3.836 3.836 0 0 0-3.832-3.832 3.836 3.836 0 0 0-3.831 3.832Z" stroke="url(#d)" stroke-opacity=".4" stroke-width=".746"/>
  </g>
  <path opacity=".5" d="m84.476 30.495.524.11-.524.115a3.242 3.242 0 0 0-2.471 2.506l-.109.524-.116-.524a3.242 3.242 0 0 0-2.506-2.471l-.524-.108.524-.117a3.24 3.24 0 0 0 2.471-2.506l.109-.524.116.524a3.242 3.242 0 0 0 2.506 2.471Z" fill="#2BABFE"/>
  <path d="m15.412 44.79.838.175-.836.185a5.188 5.188 0 0 0-3.954 4.012l-.174.838-.186-.836a5.188 5.188 0 0 0-4.01-3.954l-.839-.174.836-.186a5.188 5.188 0 0 0 3.955-4.011l.173-.839.186.836a5.188 5.188 0 0 0 4.012 3.955Z" fill="#0D89DA"/>
  <path d="m36.87 12.343.63.13-.627.14a3.892 3.892 0 0 0-2.966 3.008l-.13.63-.14-.628a3.892 3.892 0 0 0-3.008-2.966l-.629-.13.627-.14a3.891 3.891 0 0 0 2.966-3.008l.13-.629.14.627a3.89 3.89 0 0 0 3.008 2.966Z" fill="#2AAAFE"/>
  <defs>
    <linearGradient id="a" x1="49.794" y1="57.568" x2="49.794" y2="77.502" gradientUnits="userSpaceOnUse">
      <stop offset=".288" stop-color="#9CD5FA"/>
      <stop offset="1" stop-color="#F4F7FF" stop-opacity="0"/>
    </linearGradient>
    <linearGradient id="c" x1="25.709" y1="65.72" x2="73.385" y2="36.649" gradientUnits="userSpaceOnUse">
      <stop stop-color="#0C88D9"/>
      <stop offset="1" stop-color="#2AAAFE"/>
    </linearGradient>
    <linearGradient id="d" x1="-9.758" y1="112.816" x2="68.734" y2="33.742" gradientUnits="userSpaceOnUse">
      <stop stop-color="#fff"/>
      <stop offset="1" stop-color="#fff" stop-opacity="0"/>
    </linearGradient>
    <clipPath id="b">
      <path fill="#fff" d="M19.894 19.788H78.92v59.026H19.894z"/>
    </clipPath>
  </defs>
</svg>
