<svg width="217" height="110" viewBox="0 0 217 110" fill="none" xmlns="http://www.w3.org/2000/svg"><path d="M22.846 108.548C41.28 99.66 49.1 95.202 37.226 88.826.1 69.953-9.15 65.203 67.376 48.208c15.748-3.475 10.723-6.381-7.294-8.739 15.767-.517 28.392 4.358 19.975 8.739C60.475 60.202.975 66.702 65.6 77.2c47.25 7.25 24.442 31.347 24.442 31.347H22.846Z" fill="url(#a)"/><path d="M116.912 90.014s-35.062 16.188-34.75 16.125l30.563 1.688 29.125-16.75-24.938-1.063Z" fill="url(#b)"/><path d="M189.099 89.202c-6.341 3.128-36.562 16.5-36.312 16.875l30.687 1.75 32.625-18.625h-27Z" fill="url(#c)"/><path d="M166.6 82.514s-35.955 16.209-50.063 23.125l30.938 2.313 47.625-24.75-28.5-.688Z" fill="url(#d)"/><g opacity=".66"><g filter="url(#e)"><path d="M84.986 71.216a5.199 5.199 0 0 1-10.397 0c0-2.871 2.207-10.64 5.078-10.64 2.87 0 5.319 7.768 5.319 10.64Z" fill="url(#f)"/></g><path fill-rule="evenodd" clip-rule="evenodd" d="M79.242 70.36a.42.42 0 0 1 .84 0l.123 4.311c.53-.044 1.189-.493 1.343-1.478a.327.327 0 0 1 .646.1c-.198 1.27-1.106 1.984-1.971 2.034l.13 4.595a.69.69 0 1 1-1.381 0l.193-6.851c-.904-.09-1.827-.799-2.034-2.027-.03-.178.102-.346.294-.374.192-.028.373.095.403.273.157.933.801 1.386 1.356 1.469l.058-2.052Z" fill="url(#g)"/></g><path d="M108.748 34.645H90.74a3.57 3.57 0 0 0-3.57 3.57v67.364a3.57 3.57 0 0 0 3.57 3.57h18.008a3.57 3.57 0 0 0 3.571-3.57V38.215a3.57 3.57 0 0 0-3.571-3.57Z" fill="url(#h)"/><g filter="url(#i)"><path d="M103.621 34.645H85.719a3.548 3.548 0 0 0-3.55 3.546V105.1a3.548 3.548 0 0 0 3.55 3.546h17.902a3.548 3.548 0 0 0 3.549-3.546V38.191a3.548 3.548 0 0 0-3.549-3.546Z" fill="url(#j)"/></g><g filter="url(#k)"><path d="M145.127 0h-18.008a3.57 3.57 0 0 0-3.57 3.57v101.542a3.57 3.57 0 0 0 3.57 3.571h18.008a3.571 3.571 0 0 0 3.571-3.571V3.57A3.57 3.57 0 0 0 145.127 0Z" fill="url(#l)"/></g><g filter="url(#m)"><path d="M138.127 0h-18.008a3.57 3.57 0 0 0-3.57 3.57v101.542a3.57 3.57 0 0 0 3.57 3.571h18.008a3.571 3.571 0 0 0 3.571-3.571V3.57A3.57 3.57 0 0 0 138.127 0Z" fill="url(#n)"/></g><path d="M181.227 58.135h-18.008a3.57 3.57 0 0 0-3.571 3.57v43.407a3.57 3.57 0 0 0 3.571 3.57h18.008a3.57 3.57 0 0 0 3.57-3.57V61.706a3.57 3.57 0 0 0-3.57-3.57Z" fill="url(#o)"/><g filter="url(#p)"><path d="M174.227 58.135h-18.008a3.57 3.57 0 0 0-3.571 3.57v43.407a3.57 3.57 0 0 0 3.571 3.57h18.008a3.57 3.57 0 0 0 3.57-3.57V61.706a3.57 3.57 0 0 0-3.57-3.57Z" fill="url(#q)"/></g><path fill-rule="evenodd" clip-rule="evenodd" d="M23.722 77.985c11.027 0 25.85-5.558 24.404-11.117-1.446-5.559-28.02-1.15-32.9 7.092-1.59 1.074 5.001 3.13 8.496 4.025Zm5.604-6.34c3.616-2.973 7.593-3.37 8.677-2.379.868.793-5.423 1.916-8.677 2.378Z" fill="url(#r)"/><g filter="url(#s)"><path d="M21.138 42.827c-2.991 0-2.111 1.167-4.598 3.12-2.488 1.952-4.426 4.728-5.571 7.975-1.145 3.248-1.445 6.822-.861 10.269.584 3.448 2.024 6.614 4.14 9.1 2.115 2.485 4.81 4.178 7.744 4.864 2.934.686 5.975.334 8.74-1.011 2.763-1.346 5.125-3.624 6.787-6.546 1.662-2.923 2.55-6.36 2.55-9.874 0-4.714-1.594-9.234-4.43-12.567-2.665-3.143-7.727-5.643-14.5-5.33Zm3.805 25.725c-1.318 0-2.606-.459-3.702-1.319-1.096-.86-1.95-2.082-2.454-3.513a9.108 9.108 0 0 1-.38-4.523c.257-1.519.892-2.914 1.824-4.008.931-1.095 2.119-1.84 3.411-2.143a5.746 5.746 0 0 1 3.85.446c1.217.593 2.257 1.597 2.99 2.884.731 1.288 1.122 2.801 1.121 4.35 0 2.075-.702 4.065-1.951 5.533-1.249 1.467-2.943 2.292-4.709 2.293Z" fill="url(#t)"/></g><g filter="url(#u)"><path d="M24.771 43.717c-2.991 0-5.744.276-8.231 2.23-2.488 1.952-4.426 4.728-5.571 7.975-1.145 3.248-1.445 6.821-.861 10.269.584 3.447 2.024 6.614 4.14 9.1 2.115 2.485 4.81 4.178 7.744 4.864 18.19-7.953 13.8-28.437 2.78-34.438Zm.172 24.835c-1.318 0-2.606-.459-3.702-1.319-1.096-.86-1.95-2.082-2.454-3.513a9.108 9.108 0 0 1-.38-4.523c.257-1.519.892-2.914 1.824-4.008.931-1.095 2.119-1.84 3.411-2.143a5.746 5.746 0 0 1 3.85.446c1.217.593 2.257 1.597 2.99 2.884.731 1.288 1.122 2.801 1.121 4.35 0 2.075-.702 4.065-1.951 5.533-1.249 1.467-2.943 2.292-4.709 2.293Z" fill="url(#v)"/></g><g filter="url(#w)"><path d="M21.037 78.358C34.975 80.56 40.46 67.748 40.07 60.592l-3.934.047c-2.376 3.5-8.392 11.919-15.098 17.719Z" fill="url(#x)"/></g><g filter="url(#y)"><path d="M21.066 42.826c-2.991 0-5.916 1.042-8.403 2.995-2.488 1.953-4.426 4.729-5.571 7.977-1.145 3.247-1.445 6.82-.86 10.268.583 3.447 2.023 6.614 4.139 9.1 2.115 2.485 4.81 4.178 7.744 4.864 2.934.686 5.976.334 8.74-1.012 2.763-1.345 5.125-3.623 6.787-6.545 1.662-2.923 2.55-6.36 2.55-9.874 0-4.714-1.594-9.234-4.43-12.567-2.837-3.333-6.684-5.206-10.696-5.206Zm0 25.6c-1.318 0-2.606-.458-3.702-1.318-1.096-.86-1.95-2.082-2.454-3.513a9.108 9.108 0 0 1-.38-4.523c.257-1.519.892-2.914 1.824-4.008.931-1.095 2.119-1.84 3.411-2.143a5.746 5.746 0 0 1 3.85.446c1.217.593 2.257 1.597 2.99 2.884.731 1.288 1.122 2.801 1.121 4.35 0 2.075-.702 4.065-1.95 5.533-1.25 1.467-2.944 2.292-4.71 2.293Z" fill="url(#z)"/></g><g filter="url(#A)"><path d="M21.066 42.826v9.947c.875 0 1.741.202 2.55.596a6.7 6.7 0 0 1 2.16 1.697 8.035 8.035 0 0 1 1.444 2.54c.335.949.507 1.967.507 2.995h8.465c0-2.334-.39-4.646-1.15-6.802-.76-2.157-1.875-4.116-3.28-5.767-1.404-1.65-3.072-2.96-4.907-3.853a13.196 13.196 0 0 0-5.789-1.353Z" fill="url(#B)"/></g><g filter="url(#C)"><path d="M5.94 60.6c-.007 4.458 1.418 8.755 3.989 12.033l6.329-6.608c-.901-1.107-1.506-2.5-1.739-4.008a9.093 9.093 0 0 1 .428-4.471c.512-1.409 1.365-2.61 2.453-3.455 1.087-.845 2.362-1.295 3.666-1.296v-9.969c-1.986 0-3.953.46-5.789 1.353-1.835.893-3.502 2.203-4.907 3.853-1.405 1.65-2.519 3.61-3.279 5.767a20.504 20.504 0 0 0-1.15 6.802Z" fill="url(#D)"/></g><g filter="url(#E)"><path d="m20.034 66.026-3.77-.004c1.653 2.11 4.255 2.867 6.557 2.117-1.71-.781-2.274-1.531-2.787-2.113Z" fill="url(#F)"/></g><g opacity=".5"><path d="M12.212 23.602c.001-.046.004-.091.004-.137a6.105 6.105 0 0 0-6.108-6.102A6.105 6.105 0 0 0 0 23.465c0 .046.002.09.004.137h12.208Z" fill="url(#G)"/><path d="M29.604 23.602c.001-.046.004-.091.004-.137a4.71 4.71 0 0 0-4.712-4.707 4.71 4.71 0 0 0-4.712 4.707c0 .046.002.091.003.137h9.417Z" fill="url(#H)"/><path d="M23.507 23.601a8.08 8.08 0 0 0 .268-2.07c0-4.462-3.621-8.08-8.087-8.08-4.467 0-8.087 3.618-8.087 8.08 0 .715.093 1.41.268 2.07h15.638Z" fill="url(#I)"/></g><g opacity=".64"><path d="M57.691 30.602c.002-.064.005-.127.005-.19 0-4.699-3.812-8.507-8.515-8.507-4.703 0-8.515 3.808-8.515 8.506 0 .064.003.127.005.19h17.02Z" fill="url(#J)"/><path d="M81.938 30.602c.001-.064.005-.127.005-.19a6.566 6.566 0 0 0-6.57-6.563 6.566 6.566 0 0 0-6.568 6.563c0 .063.003.127.005.19h13.128Z" fill="url(#K)"/><path d="M73.436 30.601a11.26 11.26 0 0 0 .374-2.886c0-6.221-5.048-11.263-11.274-11.263-6.227 0-11.274 5.043-11.274 11.263 0 .997.13 1.965.374 2.886h21.8Z" fill="url(#L)"/></g><g opacity=".64"><path d="M185.055 17.782c.001-.06.004-.118.004-.177 0-4.368-3.544-7.908-7.916-7.908-4.371 0-7.915 3.54-7.915 7.908 0 .059.003.117.004.177h15.823Z" fill="url(#M)"/><path d="M207.595 17.782c.001-.06.004-.118.004-.177 0-3.37-2.734-6.1-6.106-6.1a6.104 6.104 0 0 0-6.107 6.1c0 .06.003.119.004.177h12.205Z" fill="url(#N)"/><path d="M199.692 17.782a10.46 10.46 0 0 0 .348-2.683c0-5.784-4.693-10.471-10.481-10.471-5.789 0-10.481 4.688-10.481 10.47 0 .928.122 1.827.348 2.684h20.266Z" fill="url(#O)"/></g><path d="m17.264 79.942-2.782.906-.296-.75c1.229-.291 2.609-.497 2.859-.547-.125-1.062 1.187-1.171 2.75-1.25.594-1 .922-1.421 1.812-1.437.454-.047 1.178.802 1.157 1.719-.172.922-4.063 3.062-5.5 1.359Z" fill="url(#P)"/><g filter="url(#Q)"><path d="M18.186 72.927a4.016 4.016 0 1 1-8.033 0c0-2.218 1.705-8.22 3.923-8.22s4.11 6.002 4.11 8.22Z" fill="url(#R)"/></g><path fill-rule="evenodd" clip-rule="evenodd" d="M13.824 72.543a.345.345 0 0 1 .69 0l.1 3.54c.437-.036.977-.405 1.103-1.214a.269.269 0 1 1 .531.083c-.163 1.042-.908 1.629-1.618 1.67l.106 3.774a.567.567 0 1 1-1.134 0l.159-5.627c-.743-.074-1.5-.656-1.67-1.664-.025-.147.083-.284.24-.307.159-.023.307.077.332.224.128.766.658 1.138 1.113 1.206l.048-1.685Z" fill="url(#S)"/><defs><linearGradient id="a" x1="52.986" y1="40.997" x2="52.986" y2="112.027" gradientUnits="userSpaceOnUse"><stop offset=".086" stop-color="#DEE6F2" stop-opacity=".26"/><stop offset=".351" stop-color="#C1CEE4" stop-opacity=".61"/><stop offset=".501" stop-color="#BDCCE4" stop-opacity=".83"/><stop offset=".649" stop-color="#C2CFE4" stop-opacity=".61"/><stop offset=".914" stop-color="#DEE6F2" stop-opacity=".27"/></linearGradient><linearGradient id="b" x1="94.983" y1="98.725" x2="140.894" y2="74.489" gradientUnits="userSpaceOnUse"><stop stop-color="#B9CBE7"/><stop offset=".587" stop-color="#B9CBE7" stop-opacity="0"/></linearGradient><linearGradient id="c" x1="169.599" y1="109.952" x2="178.304" y2="84.173" gradientUnits="userSpaceOnUse"><stop stop-color="#B9CBE7"/><stop offset=".554" stop-color="#B9CBE7" stop-opacity=".23"/><stop offset="1" stop-color="#B9CBE7" stop-opacity="0"/></linearGradient><linearGradient id="d" x1="131.6" y1="107.202" x2="194.103" y2="64.568" gradientUnits="userSpaceOnUse"><stop stop-color="#B9CBE7"/><stop offset=".372" stop-color="#B9CBE7" stop-opacity=".307"/><stop offset=".809" stop-color="#B9CBE7" stop-opacity="0"/></linearGradient><linearGradient id="f" x1="76.147" y1="76.271" x2="81.918" y2="64.271" gradientUnits="userSpaceOnUse"><stop stop-color="#C2D4ED"/><stop offset=".896" stop-color="#EAF3FF"/></linearGradient><linearGradient id="g" x1="79.404" y1="75.16" x2="75.829" y2="72.114" gradientUnits="userSpaceOnUse"><stop stop-color="#BDCADE"/><stop offset=".896" stop-color="#C3CEDF"/></linearGradient><linearGradient id="h" x1="102.991" y1="110.469" x2="58.231" y2="35.837" gradientUnits="userSpaceOnUse"><stop offset=".099" stop-color="#84B8FF"/><stop offset=".765" stop-color="#A5D9FF"/></linearGradient><linearGradient id="j" x1="89.083" y1="109.629" x2="88.472" y2="35.569" gradientUnits="userSpaceOnUse"><stop offset=".038" stop-color="#9EC8F5"/><stop offset=".831" stop-color="#D4EBFF"/></linearGradient><linearGradient id="l" x1="136.122" y1="-1.605" x2="136.122" y2="106.693" gradientUnits="userSpaceOnUse"><stop offset=".13" stop-color="#9ED0FE"/><stop offset="1" stop-color="#61A4FF"/></linearGradient><linearGradient id="n" x1="129.122" y1="-1.605" x2="129.122" y2="106.693" gradientUnits="userSpaceOnUse"><stop offset=".149" stop-color="#CCE5FF"/><stop offset="1" stop-color="#85B9FF"/></linearGradient><linearGradient id="o" x1="175.47" y1="109.578" x2="151.436" y2="50.51" gradientUnits="userSpaceOnUse"><stop offset=".099" stop-color="#84B8FF"/><stop offset=".765" stop-color="#A5D9FF"/></linearGradient><linearGradient id="q" x1="159.315" y1="109.031" x2="158.685" y2="58.768" gradientUnits="userSpaceOnUse"><stop offset=".038" stop-color="#9EC8F5"/><stop offset=".813" stop-color="#D4EBFF"/></linearGradient><linearGradient id="r" x1="21.734" y1="70.456" x2="52.246" y2="57.895" gradientUnits="userSpaceOnUse"><stop stop-color="#8193AE"/><stop offset=".805" stop-color="#B9CBE7" stop-opacity="0"/></linearGradient><linearGradient id="t" x1="25.545" y1="41.395" x2="25.045" y2="56.02" gradientUnits="userSpaceOnUse"><stop stop-color="#9ED0FE"/><stop offset="1" stop-color="#61A4FF"/></linearGradient><linearGradient id="v" x1="22.121" y1="42.431" x2="22.121" y2="77.51" gradientUnits="userSpaceOnUse"><stop offset=".391" stop-color="#67ACF7"/><stop offset="1" stop-color="#BBDCFF"/></linearGradient><linearGradient id="x" x1="25.444" y1="76.467" x2="15.935" y2="41.431" gradientUnits="userSpaceOnUse"><stop offset=".038" stop-color="#A7D1FF"/><stop offset=".69" stop-color="#D4EBFF"/></linearGradient><linearGradient id="z" x1="18.35" y1="78.577" x2="14.887" y2="65.6" gradientUnits="userSpaceOnUse"><stop offset=".256" stop-color="#D4EBFF"/><stop offset=".771" stop-color="#E1F1FF"/></linearGradient><linearGradient id="B" x1="28.628" y1="42.564" x2="28.628" y2="60.275" gradientUnits="userSpaceOnUse"><stop stop-color="#CCE5FF"/><stop offset="1" stop-color="#85B9FF"/></linearGradient><linearGradient id="D" x1="9.439" y1="69.088" x2="15.332" y2="48.072" gradientUnits="userSpaceOnUse"><stop offset=".038" stop-color="#9EC8F5"/><stop offset="1" stop-color="#D4EBFF"/></linearGradient><linearGradient id="F" x1="15.85" y1="63.827" x2="21.774" y2="68.025" gradientUnits="userSpaceOnUse"><stop offset=".13" stop-color="#DEF4FF"/><stop offset=".91" stop-color="#87CFFF"/></linearGradient><linearGradient id="G" x1="6.108" y1="17.363" x2="6.108" y2="23.602" gradientUnits="userSpaceOnUse"><stop stop-color="#E9EEF6"/><stop offset="1" stop-color="#EBEDEE" stop-opacity="0"/></linearGradient><linearGradient id="H" x1="24.896" y1="18.758" x2="24.896" y2="23.602" gradientUnits="userSpaceOnUse"><stop stop-color="#E9EEF6"/><stop offset="1" stop-color="#EBEDEE" stop-opacity="0"/></linearGradient><linearGradient id="I" x1="15.688" y1="13.452" x2="15.688" y2="23.601" gradientUnits="userSpaceOnUse"><stop stop-color="#E9EEF6"/><stop offset="1" stop-color="#EBEDEE" stop-opacity="0"/></linearGradient><linearGradient id="J" x1="49.181" y1="21.905" x2="49.181" y2="30.602" gradientUnits="userSpaceOnUse"><stop stop-color="#E9EEF6"/><stop offset="1" stop-color="#EBEDEE" stop-opacity="0"/></linearGradient><linearGradient id="K" x1="75.374" y1="23.849" x2="75.374" y2="30.602" gradientUnits="userSpaceOnUse"><stop stop-color="#E9EEF6"/><stop offset="1" stop-color="#EBEDEE" stop-opacity="0"/></linearGradient><linearGradient id="L" x1="62.536" y1="16.452" x2="62.536" y2="30.601" gradientUnits="userSpaceOnUse"><stop stop-color="#E9EEF6"/><stop offset="1" stop-color="#EBEDEE" stop-opacity="0"/></linearGradient><linearGradient id="M" x1="177.143" y1="9.697" x2="177.143" y2="17.782" gradientUnits="userSpaceOnUse"><stop stop-color="#E9EEF6"/><stop offset="1" stop-color="#EBEDEE" stop-opacity="0"/></linearGradient><linearGradient id="N" x1="201.493" y1="11.504" x2="201.493" y2="17.782" gradientUnits="userSpaceOnUse"><stop stop-color="#E9EEF6"/><stop offset="1" stop-color="#EBEDEE" stop-opacity="0"/></linearGradient><linearGradient id="O" x1="189.559" y1="4.628" x2="189.559" y2="17.782" gradientUnits="userSpaceOnUse"><stop stop-color="#E9EEF6"/><stop offset="1" stop-color="#EBEDEE" stop-opacity="0"/></linearGradient><linearGradient id="P" x1="14.107" y1="80.457" x2="26.449" y2="75.244" gradientUnits="userSpaceOnUse"><stop stop-color="#8193AE"/><stop offset=".838" stop-color="#B9CBE7" stop-opacity="0"/></linearGradient><linearGradient id="R" x1="16.678" y1="75.67" x2="14.621" y2="69.276" gradientUnits="userSpaceOnUse"><stop stop-color="#C2D4ED"/><stop offset=".896" stop-color="#EAF2FF"/></linearGradient><linearGradient id="S" x1="13.957" y1="76.485" x2="11.021" y2="73.983" gradientUnits="userSpaceOnUse"><stop stop-color="#BDCADE"/><stop offset=".896" stop-color="#C3CEDF"/></linearGradient><filter id="e" x="74.589" y="60.577" width="10.398" height="15.837" filterUnits="userSpaceOnUse" color-interpolation-filters="sRGB"><feFlood flood-opacity="0" result="BackgroundImageFix"/><feBlend in="SourceGraphic" in2="BackgroundImageFix" result="shape"/><feColorMatrix in="SourceAlpha" values="0 0 0 0 0 0 0 0 0 0 0 0 0 0 0 0 0 0 127 0" result="hardAlpha"/><feOffset/><feGaussianBlur stdDeviation="1.215"/><feComposite in2="hardAlpha" operator="arithmetic" k2="-1" k3="1"/><feColorMatrix values="0 0 0 0 0 0 0 0 0 0 0 0 0 0 0 0 0 0 0.07 0"/><feBlend in2="shape" result="effect1_innerShadow_2361_71131"/></filter><filter id="i" x="82.17" y="34.465" width="25" height="75.768" filterUnits="userSpaceOnUse" color-interpolation-filters="sRGB"><feFlood flood-opacity="0" result="BackgroundImageFix"/><feBlend in="SourceGraphic" in2="BackgroundImageFix" result="shape"/><feColorMatrix in="SourceAlpha" values="0 0 0 0 0 0 0 0 0 0 0 0 0 0 0 0 0 0 127 0" result="hardAlpha"/><feOffset dy="1.588"/><feGaussianBlur stdDeviation="1.295"/><feComposite in2="hardAlpha" operator="arithmetic" k2="-1" k3="1"/><feColorMatrix values="0 0 0 0 0.188235 0 0 0 0 0.505882 0 0 0 0 0.952941 0 0 0 0.19 0"/><feBlend in2="shape" result="effect1_innerShadow_2361_71131"/><feColorMatrix in="SourceAlpha" values="0 0 0 0 0 0 0 0 0 0 0 0 0 0 0 0 0 0 127 0" result="hardAlpha"/><feOffset dy="-.18"/><feGaussianBlur stdDeviation=".795"/><feComposite in2="hardAlpha" operator="arithmetic" k2="-1" k3="1"/><feColorMatrix values="0 0 0 0 0.186858 0 0 0 0 0.504166 0 0 0 0 0.954167 0 0 0 0.28 0"/><feBlend in2="effect1_innerShadow_2361_71131" result="effect2_innerShadow_2361_71131"/></filter><filter id="k" x="123.549" y="-.143" width="25.148" height="110.086" filterUnits="userSpaceOnUse" color-interpolation-filters="sRGB"><feFlood flood-opacity="0" result="BackgroundImageFix"/><feBlend in="SourceGraphic" in2="BackgroundImageFix" result="shape"/><feColorMatrix in="SourceAlpha" values="0 0 0 0 0 0 0 0 0 0 0 0 0 0 0 0 0 0 127 0" result="hardAlpha"/><feOffset dy="1.26"/><feGaussianBlur stdDeviation="1.026"/><feComposite in2="hardAlpha" operator="arithmetic" k2="-1" k3="1"/><feColorMatrix values="0 0 0 0 0.188235 0 0 0 0 0.505882 0 0 0 0 0.952941 0 0 0 0.19 0"/><feBlend in2="shape" result="effect1_innerShadow_2361_71131"/><feColorMatrix in="SourceAlpha" values="0 0 0 0 0 0 0 0 0 0 0 0 0 0 0 0 0 0 127 0" result="hardAlpha"/><feOffset dy="-.143"/><feGaussianBlur stdDeviation=".63"/><feComposite in2="hardAlpha" operator="arithmetic" k2="-1" k3="1"/><feColorMatrix values="0 0 0 0 0.188235 0 0 0 0 0.505882 0 0 0 0 0.952941 0 0 0 0.25 0"/><feBlend in2="effect1_innerShadow_2361_71131" result="effect2_innerShadow_2361_71131"/></filter><filter id="m" x="116.549" y="-.143" width="25.148" height="110.086" filterUnits="userSpaceOnUse" color-interpolation-filters="sRGB"><feFlood flood-opacity="0" result="BackgroundImageFix"/><feBlend in="SourceGraphic" in2="BackgroundImageFix" result="shape"/><feColorMatrix in="SourceAlpha" values="0 0 0 0 0 0 0 0 0 0 0 0 0 0 0 0 0 0 127 0" result="hardAlpha"/><feOffset dy="1.26"/><feGaussianBlur stdDeviation="1.026"/><feComposite in2="hardAlpha" operator="arithmetic" k2="-1" k3="1"/><feColorMatrix values="0 0 0 0 0.188235 0 0 0 0 0.505882 0 0 0 0 0.952941 0 0 0 0.19 0"/><feBlend in2="shape" result="effect1_innerShadow_2361_71131"/><feColorMatrix in="SourceAlpha" values="0 0 0 0 0 0 0 0 0 0 0 0 0 0 0 0 0 0 127 0" result="hardAlpha"/><feOffset dy="-.143"/><feGaussianBlur stdDeviation=".63"/><feComposite in2="hardAlpha" operator="arithmetic" k2="-1" k3="1"/><feColorMatrix values="0 0 0 0 0.188235 0 0 0 0 0.505882 0 0 0 0 0.952941 0 0 0 0.25 0"/><feBlend in2="effect1_innerShadow_2361_71131" result="effect2_innerShadow_2361_71131"/></filter><filter id="p" x="152.648" y="57.955" width="25.148" height="52.315" filterUnits="userSpaceOnUse" color-interpolation-filters="sRGB"><feFlood flood-opacity="0" result="BackgroundImageFix"/><feBlend in="SourceGraphic" in2="BackgroundImageFix" result="shape"/><feColorMatrix in="SourceAlpha" values="0 0 0 0 0 0 0 0 0 0 0 0 0 0 0 0 0 0 127 0" result="hardAlpha"/><feOffset dy="1.588"/><feGaussianBlur stdDeviation="1.295"/><feComposite in2="hardAlpha" operator="arithmetic" k2="-1" k3="1"/><feColorMatrix values="0 0 0 0 0.188235 0 0 0 0 0.505882 0 0 0 0 0.952941 0 0 0 0.19 0"/><feBlend in2="shape" result="effect1_innerShadow_2361_71131"/><feColorMatrix in="SourceAlpha" values="0 0 0 0 0 0 0 0 0 0 0 0 0 0 0 0 0 0 127 0" result="hardAlpha"/><feOffset dy="-.18"/><feGaussianBlur stdDeviation=".795"/><feComposite in2="hardAlpha" operator="arithmetic" k2="-1" k3="1"/><feColorMatrix values="0 0 0 0 0.186858 0 0 0 0 0.504166 0 0 0 0 0.954167 0 0 0 0.28 0"/><feBlend in2="effect1_innerShadow_2361_71131" result="effect2_innerShadow_2361_71131"/></filter><filter id="s" x="9.817" y="42.8" width="30.251" height="35.696" filterUnits="userSpaceOnUse" color-interpolation-filters="sRGB"><feFlood flood-opacity="0" result="BackgroundImageFix"/><feBlend in="SourceGraphic" in2="BackgroundImageFix" result="shape"/><feColorMatrix in="SourceAlpha" values="0 0 0 0 0 0 0 0 0 0 0 0 0 0 0 0 0 0 127 0" result="hardAlpha"/><feOffset/><feGaussianBlur stdDeviation="1.5"/><feComposite in2="hardAlpha" operator="arithmetic" k2="-1" k3="1"/><feColorMatrix values="0 0 0 0 0.188235 0 0 0 0 0.505882 0 0 0 0 0.952941 0 0 0 0.25 0"/><feBlend in2="shape" result="effect1_innerShadow_2361_71131"/></filter><filter id="u" x="9.817" y="43.717" width="24.526" height="34.438" filterUnits="userSpaceOnUse" color-interpolation-filters="sRGB"><feFlood flood-opacity="0" result="BackgroundImageFix"/><feBlend in="SourceGraphic" in2="BackgroundImageFix" result="shape"/><feColorMatrix in="SourceAlpha" values="0 0 0 0 0 0 0 0 0 0 0 0 0 0 0 0 0 0 127 0" result="hardAlpha"/><feOffset/><feGaussianBlur stdDeviation="1.5"/><feComposite in2="hardAlpha" operator="arithmetic" k2="-1" k3="1"/><feColorMatrix values="0 0 0 0 0.188235 0 0 0 0 0.505882 0 0 0 0 0.952941 0 0 0 0.25 0"/><feBlend in2="shape" result="effect1_innerShadow_2361_71131"/></filter><filter id="w" x="21.037" y="60.592" width="19.051" height="18.017" filterUnits="userSpaceOnUse" color-interpolation-filters="sRGB"><feFlood flood-opacity="0" result="BackgroundImageFix"/><feBlend in="SourceGraphic" in2="BackgroundImageFix" result="shape"/><feColorMatrix in="SourceAlpha" values="0 0 0 0 0 0 0 0 0 0 0 0 0 0 0 0 0 0 127 0" result="hardAlpha"/><feOffset/><feGaussianBlur stdDeviation="1.5"/><feComposite in2="hardAlpha" operator="arithmetic" k2="-1" k3="1"/><feColorMatrix values="0 0 0 0 0.186858 0 0 0 0 0.504166 0 0 0 0 0.954167 0 0 0 0.28 0"/><feBlend in2="shape" result="effect1_innerShadow_2361_71131"/></filter><filter id="y" x="5.94" y="42.826" width="30.251" height="35.545" filterUnits="userSpaceOnUse" color-interpolation-filters="sRGB"><feFlood flood-opacity="0" result="BackgroundImageFix"/><feBlend in="SourceGraphic" in2="BackgroundImageFix" result="shape"/><feColorMatrix in="SourceAlpha" values="0 0 0 0 0 0 0 0 0 0 0 0 0 0 0 0 0 0 127 0" result="hardAlpha"/><feOffset/><feGaussianBlur stdDeviation="1.5"/><feComposite in2="hardAlpha" operator="arithmetic" k2="-1" k3="1"/><feColorMatrix values="0 0 0 0 0.186858 0 0 0 0 0.504166 0 0 0 0 0.954167 0 0 0 0.28 0"/><feBlend in2="shape" result="effect1_innerShadow_2361_71131"/></filter><filter id="A" x="21.066" y="42.826" width="15.126" height="17.774" filterUnits="userSpaceOnUse" color-interpolation-filters="sRGB"><feFlood flood-opacity="0" result="BackgroundImageFix"/><feBlend in="SourceGraphic" in2="BackgroundImageFix" result="shape"/><feColorMatrix in="SourceAlpha" values="0 0 0 0 0 0 0 0 0 0 0 0 0 0 0 0 0 0 127 0" result="hardAlpha"/><feOffset/><feGaussianBlur stdDeviation="1.5"/><feComposite in2="hardAlpha" operator="arithmetic" k2="-1" k3="1"/><feColorMatrix values="0 0 0 0 0.188235 0 0 0 0 0.505882 0 0 0 0 0.952941 0 0 0 0.25 0"/><feBlend in2="shape" result="effect1_innerShadow_2361_71131"/></filter><filter id="C" x="5.94" y="42.826" width="15.126" height="29.807" filterUnits="userSpaceOnUse" color-interpolation-filters="sRGB"><feFlood flood-opacity="0" result="BackgroundImageFix"/><feBlend in="SourceGraphic" in2="BackgroundImageFix" result="shape"/><feColorMatrix in="SourceAlpha" values="0 0 0 0 0 0 0 0 0 0 0 0 0 0 0 0 0 0 127 0" result="hardAlpha"/><feOffset/><feGaussianBlur stdDeviation="1.5"/><feComposite in2="hardAlpha" operator="arithmetic" k2="-1" k3="1"/><feColorMatrix values="0 0 0 0 0.186858 0 0 0 0 0.504166 0 0 0 0 0.954167 0 0 0 0.28 0"/><feBlend in2="shape" result="effect1_innerShadow_2361_71131"/></filter><filter id="E" x="16.264" y="66.022" width="6.558" height="2.399" filterUnits="userSpaceOnUse" color-interpolation-filters="sRGB"><feFlood flood-opacity="0" result="BackgroundImageFix"/><feBlend in="SourceGraphic" in2="BackgroundImageFix" result="shape"/><feColorMatrix in="SourceAlpha" values="0 0 0 0 0 0 0 0 0 0 0 0 0 0 0 0 0 0 127 0" result="hardAlpha"/><feOffset/><feGaussianBlur stdDeviation="1.585"/><feComposite in2="hardAlpha" operator="arithmetic" k2="-1" k3="1"/><feColorMatrix values="0 0 0 0 0.188235 0 0 0 0 0.505882 0 0 0 0 0.952941 0 0 0 0.25 0"/><feBlend in2="shape" result="effect1_innerShadow_2361_71131"/></filter><filter id="Q" x="10.153" y="64.707" width="8.032" height="12.235" filterUnits="userSpaceOnUse" color-interpolation-filters="sRGB"><feFlood flood-opacity="0" result="BackgroundImageFix"/><feBlend in="SourceGraphic" in2="BackgroundImageFix" result="shape"/><feColorMatrix in="SourceAlpha" values="0 0 0 0 0 0 0 0 0 0 0 0 0 0 0 0 0 0 127 0" result="hardAlpha"/><feOffset/><feGaussianBlur stdDeviation="1.215"/><feComposite in2="hardAlpha" operator="arithmetic" k2="-1" k3="1"/><feColorMatrix values="0 0 0 0 0 0 0 0 0 0 0 0 0 0 0 0 0 0 0.07 0"/><feBlend in2="shape" result="effect1_innerShadow_2361_71131"/></filter></defs></svg>