<svg width="20" height="20" viewBox="0 0 20 20" fill="none" xmlns="http://www.w3.org/2000/svg"><path fill-rule="evenodd" clip-rule="evenodd" d="M6.277 8.152a.625.625 0 0 1 .884 0L10 10.992l2.84-2.84a.625.625 0 0 1 .883.884l-3.281 3.28a.625.625 0 0 1-.884 0l-3.281-3.28a.625.625 0 0 1 0-.884Z" fill="#767D86"/><path fill-rule="evenodd" clip-rule="evenodd" d="M10 2.5c.345 0 .625.28.625.625v8.75a.625.625 0 1 1-1.25 0v-8.75c0-.345.28-.625.625-.625Z" fill="#767D86"/><path fill-rule="evenodd" clip-rule="evenodd" d="M3.125 11.25c.345 0 .625.28.625.625v4.375h12.5v-4.375a.625.625 0 1 1 1.25 0v4.375a1.25 1.25 0 0 1-1.25 1.25H3.75a1.25 1.25 0 0 1-1.25-1.25v-4.375c0-.345.28-.625.625-.625Z" fill="#767D86"/></svg>