<svg width="20" height="20" viewBox="0 0 20 20" fill="none" xmlns="http://www.w3.org/2000/svg">
<path fill-rule="evenodd" clip-rule="evenodd" d="M12.5581 2.23078C12.711 2.16676 12.9592 2.13379 13.125 2.13379C13.2908 2.13379 13.4549 2.16676 13.6078 2.23078C13.7598 2.29443 13.8977 2.3875 14.0136 2.50464L17.4953 5.98633C17.6124 6.10223 17.7055 6.24015 17.7692 6.39216C17.8332 6.54506 17.8661 6.70917 17.8661 6.87493C17.8661 7.0407 17.8332 7.2048 17.7692 7.3577C17.7055 7.50971 17.6124 7.64761 17.4953 7.7635L7.94194 17.3169C7.82473 17.4341 7.66576 17.4999 7.5 17.4999H3.75C3.41848 17.4999 3.10054 17.3682 2.86612 17.1338C2.6317 16.8994 2.5 16.5815 2.5 16.2499V12.1875M12.5581 2.23078C12.4061 2.29444 12.3523 2.38753 12.2364 2.50469L12.5581 2.23078ZM3.75 12.7588V16.2499H7.24112L16.6161 6.87492L16.6127 6.87157L13.125 3.3838L13.1216 3.3872L3.75 12.7588Z" fill="#4B5055"/>
<path fill-rule="evenodd" clip-rule="evenodd" d="M6.875 16.875C6.875 16.5298 7.15482 16.25 7.5 16.25H16.875C17.2202 16.25 17.5 16.5298 17.5 16.875C17.5 17.2202 17.2202 17.5 16.875 17.5H7.5C7.15482 17.5 6.875 17.2202 6.875 16.875Z" fill="#4B5055"/>
<path fill-rule="evenodd" clip-rule="evenodd" d="M10.1831 4.55806C10.4271 4.31398 10.8229 4.31398 11.0669 4.55806L15.4419 8.93306C15.686 9.17714 15.686 9.57286 15.4419 9.81694C15.1979 10.061 14.8021 10.061 14.5581 9.81694L10.1831 5.44194C9.93898 5.19786 9.93898 4.80214 10.1831 4.55806Z" fill="#4B5055"/>
</svg>
