<svg width="20" height="20" viewBox="0 0 20 20" fill="none" xmlns="http://www.w3.org/2000/svg">
<path fill-rule="evenodd" clip-rule="evenodd" d="M9.55806 2.68306C9.80214 2.43898 10.1979 2.43898 10.4419 2.68306L13.7232 5.96431C13.9673 6.20839 13.9673 6.60411 13.7232 6.84819C13.4791 7.09227 13.0834 7.09227 12.8393 6.84819L10 4.00888L7.16069 6.84819C6.91661 7.09227 6.52089 7.09227 6.27681 6.84819C6.03273 6.60411 6.03273 6.20839 6.27681 5.96431L9.55806 2.68306Z" fill="white"/>
<path fill-rule="evenodd" clip-rule="evenodd" d="M10 2.5C10.3452 2.5 10.625 2.77982 10.625 3.125V11.875C10.625 12.2202 10.3452 12.5 10 12.5C9.65482 12.5 9.375 12.2202 9.375 11.875V3.125C9.375 2.77982 9.65482 2.5 10 2.5Z" fill="white"/>
<path fill-rule="evenodd" clip-rule="evenodd" d="M3.125 11.25C3.47018 11.25 3.75 11.5298 3.75 11.875V16.25H16.25V11.875C16.25 11.5298 16.5298 11.25 16.875 11.25C17.2202 11.25 17.5 11.5298 17.5 11.875V16.25C17.5 16.5815 17.3683 16.8995 17.1339 17.1339C16.8995 17.3683 16.5815 17.5 16.25 17.5H3.75C3.41848 17.5 3.10054 17.3683 2.86612 17.1339C2.6317 16.8995 2.5 16.5815 2.5 16.25V11.875C2.5 11.5298 2.77982 11.25 3.125 11.25Z" fill="white"/>
</svg>
